<svg xmlns="http://www.w3.org/2000/svg" version="1.0" width="320.000000" height="320.000000" preserveAspectRatio="xMidYMid meet" style=""><rect id="backgroundrect" width="100%" height="100%" x="0" y="0" fill="none" stroke="none"/>


<g class="currentLayer" style=""><title>Layer 1</title><g transform="translate(0,320) scale(0.10000000149011612,-0.10000000149011612) " fill="#6a0dad" stroke="none" id="svg_1" class="selected" fill-opacity="1">
<path d="M1150.6185550689697,3055.0000000000005 l-95,-95 l-140,0 l-140,0 l-263,-263 l-262,-262 l0,-140 l0,-140 l-100,-100 l-100,-100 l0,-370 l0,-370 l100,-100 l100,-100 l0,-135 l0,-135 l263,-263 l262,-262 l135,0 l135,0 l100,-100 l100,-100 l373,0 l373,0 l96,100 l96,100 l141,0 l141,0 l263,263 l262,262 l0,140 l0,140 l100,95 l100,95 l0,370 l0,370 l-100,100 l-100,100 l0,140 l0,140 l-263,263 l-262,262 l-140,0 l-140,0 l-95,95 l-95,95 l-375,0 l-375,0 l-95,-95 zm905,-15 l80,-80 l-515,0 l-515,0 l80,80 l80,80 l355,0 l355,0 l80,-80 zm-1400,-480 c-198,-198 -363,-360 -367,-360 c-5,0 -8,48 -8,107 l0,108 l252,252 l253,253 l115,0 l115,0 l-360,-360 zm1912,-32 l393,-393 l0,-550 l0,-550 l-392,-392 l-393,-393 l-555,0 l-555,0 l-392,392 l-393,393 l0,550 l0,550 l392,392 l393,393 l555,0 l555,0 l392,-392 zm141,139 l252,-252 l0,-108 c0,-59 -3,-107 -8,-107 c-4,0 -169,162 -367,360 l-360,360 l115,0 l115,0 l253,-253 zm-2458,-1077 c0,-280 -3,-510 -7,-510 c-4,0 -40,33 -80,72 l-73,72 l0,360 l0,360 l73,77 c39,42 75,77 80,78 c4,0 7,-228 7,-509 zm2900,-5 l0,-361 l-73,-72 c-40,-39 -76,-72 -80,-72 c-4,0 -7,231 -7,512 l0,513 l80,-80 l80,-80 l0,-360 zm-2495,-975 l360,-360 l-115,0 l-115,0 l-253,253 l-252,252 l0,108 c0,59 3,107 8,107 c4,0 169,-162 367,-360 zm2305,258 l0,-103 l-257,-257 l-258,-258 l-107,0 c-60,0 -108,2 -108,3 c0,10 707,714 718,715 c9,2 12,-24 12,-100 zm-830,-655 c0,-4 -33,-40 -72,-80 l-72,-73 l-366,0 l-365,0 l-72,72 c-40,40 -73,76 -73,80 c0,5 230,8 510,8 c281,0 510,-3 510,-7 z" id="svg_2" fill="#6a0dad" fill-opacity="1"/>
<path d="M912.6185550689697,2462.0000000000005 c-10,-7 -12,-189 -10,-878 l3,-869 l184,-3 c127,-2 188,1 197,9 c11,9 14,76 14,359 c0,192 3,355 6,364 c5,14 42,16 308,16 c222,0 305,-3 314,-12 c9,-9 12,-104 12,-364 c0,-287 3,-354 14,-363 c9,-8 70,-11 197,-9 l184,3 l3,864 c1,630 -1,867 -9,877 c-9,11 -51,14 -184,14 c-96,0 -180,-3 -189,-6 c-14,-5 -16,-44 -16,-335 c0,-327 0,-328 -22,-343 c-34,-24 -579,-24 -602,0 c-14,13 -16,58 -16,339 c0,310 -1,325 -19,335 c-23,12 -350,14 -369,2 z" id="svg_3" fill="#6a0dad" fill-opacity="1"/>
</g></g></svg>